<mxfile host="app.diagrams.net" modified="2024-01-30T07:22:45.398Z" agent="Mozilla/5.0 (Windows NT 10.0; Win64; x64) AppleWebKit/537.36 (KHTML, like Gecko) Chrome/121.0.0.0 Safari/537.36" version="23.0.2" etag="kSjpdilzmz370h4b1O4l" type="github">
  <diagram name="第 1 页" id="jkTg79yU5YG_qxhQfQDM">
    <mxGraphModel>
      <root>
        <mxCell id="0" />
        <mxCell id="1" parent="0" />
      </root>
    </mxGraphModel>
  </diagram>
</mxfile>
